<svg width="172" height="172" viewBox="0 0 172 172" fill="none" xmlns="http://www.w3.org/2000/svg">
<mask id="mask0_1429_24706" style="mask-type:alpha" maskUnits="userSpaceOnUse" x="0" y="0" width="172" height="172">
<circle cx="86" cy="86" r="86" fill="#F2F1FF"/>
</mask>
<g mask="url(#mask0_1429_24706)">
<circle cx="86" cy="86" r="86" fill="#F2F1FF"/>
<g filter="url(#filter0_d_1429_24706)">
<rect x="38.0156" y="38.6113" width="95.9693" height="145.634" rx="10.5148" fill="#FF0000" fill-opacity="0.01" shape-rendering="crispEdges"/>
</g>
<rect x="34.9995" y="35.0757" width="102.001" height="149.17" rx="10.5148" fill="white"/>
<rect opacity="0.8" x="74.2939" y="53.7537" width="35.2903" height="5.33" rx="2.665" fill="#DCDDEB"/>
<rect opacity="0.5" x="74.2939" y="63.0322" width="51.683" height="5.33" rx="2.665" fill="#DCDDEB"/>
<circle cx="58.1859" cy="61.058" r="12.163" fill="#004979"/>
<path d="M58.1897 61.3484C58.8346 61.3484 59.465 61.1572 60.0012 60.7989C60.5374 60.4407 60.9553 59.9315 61.2021 59.3357C61.4488 58.7399 61.5134 58.0843 61.3876 57.4518C61.2618 56.8193 60.9513 56.2384 60.4953 55.7824C60.0393 55.3264 59.4583 55.0159 58.8258 54.89C58.1933 54.7642 57.5378 54.8288 56.942 55.0756C56.3462 55.3224 55.837 55.7403 55.4787 56.2765C55.1204 56.8127 54.9292 57.443 54.9292 58.0879C54.9292 58.9527 55.2727 59.782 55.8842 60.3935C56.4957 61.0049 57.325 61.3484 58.1897 61.3484Z" fill="white"/>
<path d="M58.1897 62.5342C56.9051 62.535 55.6536 62.9411 54.6133 63.6946C53.573 64.4482 52.797 65.5107 52.3957 66.731C52.3748 66.7947 52.3693 66.8625 52.3796 66.9288C52.3899 66.995 52.4157 67.0579 52.455 67.1123C52.4943 67.1667 52.5459 67.211 52.6056 67.2415C52.6652 67.2721 52.7313 67.2882 52.7984 67.2883H63.5776C63.6435 67.288 63.7084 67.2726 63.7674 67.2431C63.8263 67.2136 63.8776 67.1709 63.9174 67.1184C63.9567 67.0642 63.9826 67.0014 63.993 66.9352C64.0033 66.8691 63.9978 66.8014 63.9769 66.7378C63.5767 65.5176 62.8021 64.4547 61.7631 63.7C60.7242 62.9453 59.4738 62.5374 58.1897 62.5342V62.5342Z" fill="white"/>
<rect opacity="0.8" x="74.2939" y="150.754" width="35.2903" height="5.33" rx="2.665" fill="#DCDDEB"/>
<rect opacity="0.5" x="74.2939" y="160.032" width="51.683" height="5.33" rx="2.665" fill="#DCDDEB"/>
<circle cx="58.1859" cy="158.058" r="12.163" fill="#F2F1FF"/>
<g opacity="0.5">
<path d="M58.1897 158.348C58.8346 158.348 59.465 158.157 60.0012 157.799C60.5374 157.441 60.9553 156.931 61.2021 156.336C61.4488 155.74 61.5134 155.084 61.3876 154.452C61.2618 153.819 60.9513 153.238 60.4953 152.782C60.0393 152.326 59.4583 152.016 58.8258 151.89C58.1933 151.764 57.5378 151.829 56.942 152.076C56.3462 152.322 55.837 152.74 55.4787 153.276C55.1204 153.813 54.9292 154.443 54.9292 155.088C54.9292 155.953 55.2727 156.782 55.8842 157.393C56.4957 158.005 57.325 158.348 58.1897 158.348Z" fill="#004979"/>
<path d="M58.1897 159.534C56.9051 159.535 55.6536 159.941 54.6133 160.695C53.573 161.448 52.797 162.511 52.3957 163.731C52.3748 163.795 52.3693 163.862 52.3796 163.929C52.3899 163.995 52.4157 164.058 52.455 164.112C52.4943 164.167 52.5459 164.211 52.6056 164.242C52.6652 164.272 52.7313 164.288 52.7984 164.288H63.5776C63.6435 164.288 63.7084 164.273 63.7674 164.243C63.8263 164.214 63.8776 164.171 63.9174 164.118C63.9567 164.064 63.9826 164.001 63.993 163.935C64.0033 163.869 63.9978 163.801 63.9769 163.738C63.5767 162.518 62.8021 161.455 61.7631 160.7C60.7242 159.945 59.4738 159.537 58.1897 159.534V159.534Z" fill="#004979"/>
</g>
<rect opacity="0.8" x="74.2939" y="86.0796" width="50.8144" height="5.33" rx="2.665" fill="#DCDDEB"/>
<rect opacity="0.5" x="74.2939" y="95.3582" width="34.4613" height="5.33" rx="2.665" fill="#DCDDEB"/>
<circle cx="58.1859" cy="93.3839" r="12.163" fill="#F2F1FF"/>
<g opacity="0.5">
<path d="M58.1897 93.6744C58.8346 93.6744 59.465 93.4831 60.0012 93.1249C60.5374 92.7666 60.9553 92.2574 61.2021 91.6616C61.4488 91.0658 61.5134 90.4102 61.3876 89.7777C61.2618 89.1453 60.9513 88.5643 60.4953 88.1083C60.0393 87.6523 59.4583 87.3418 58.8258 87.216C58.1933 87.0902 57.5378 87.1547 56.942 87.4015C56.3462 87.6483 55.837 88.0662 55.4787 88.6024C55.1204 89.1386 54.9292 89.769 54.9292 90.4138C54.9292 91.2786 55.2727 92.1079 55.8842 92.7194C56.4957 93.3309 57.325 93.6744 58.1897 93.6744Z" fill="#004979"/>
<path d="M58.1897 94.8601C56.9051 94.8609 55.6536 95.267 54.6133 96.0205C53.573 96.7741 52.797 97.8366 52.3957 99.0569C52.3748 99.1206 52.3693 99.1884 52.3796 99.2547C52.3899 99.321 52.4157 99.3839 52.455 99.4382C52.4943 99.4926 52.5459 99.5369 52.6056 99.5675C52.6652 99.5981 52.7313 99.6141 52.7984 99.6142H63.5776C63.6435 99.614 63.7084 99.5985 63.7674 99.569C63.8263 99.5395 63.8776 99.4969 63.9174 99.4443C63.9567 99.3901 63.9826 99.3273 63.993 99.2612C64.0033 99.195 63.9978 99.1273 63.9769 99.0637C63.5767 97.8436 62.8021 96.7806 61.7631 96.0259C60.7242 95.2713 59.4738 94.8633 58.1897 94.8601V94.8601Z" fill="#004979"/>
</g>
<rect opacity="0.8" x="74.2939" y="118.406" width="45.4625" height="5.33" rx="2.665" fill="#DCDDEB"/>
<rect opacity="0.5" x="74.2939" y="127.684" width="24.534" height="5.33" rx="2.665" fill="#DCDDEB"/>
<circle cx="58.1859" cy="125.71" r="12.163" fill="#004979"/>
<path d="M58.1897 126C58.8346 126 59.465 125.809 60.0012 125.451C60.5374 125.093 60.9553 124.583 61.2021 123.988C61.4488 123.392 61.5134 122.736 61.3876 122.104C61.2618 121.471 60.9513 120.89 60.4953 120.434C60.0393 119.978 59.4583 119.668 58.8258 119.542C58.1933 119.416 57.5378 119.481 56.942 119.727C56.3462 119.974 55.837 120.392 55.4787 120.928C55.1204 121.465 54.9292 122.095 54.9292 122.74C54.9292 123.605 55.2727 124.434 55.8842 125.045C56.4957 125.657 57.325 126 58.1897 126Z" fill="white"/>
<path d="M58.1897 127.186C56.9051 127.187 55.6536 127.593 54.6133 128.346C53.573 129.1 52.797 130.163 52.3957 131.383C52.3748 131.447 52.3693 131.514 52.3796 131.581C52.3899 131.647 52.4157 131.71 52.455 131.764C52.4943 131.819 52.5459 131.863 52.6056 131.893C52.6652 131.924 52.7313 131.94 52.7984 131.94H63.5776C63.6435 131.94 63.7084 131.924 63.7674 131.895C63.8263 131.865 63.8776 131.823 63.9174 131.77C63.9567 131.716 63.9826 131.653 63.993 131.587C64.0033 131.521 63.9978 131.453 63.9769 131.39C63.5767 130.169 62.8021 129.107 61.7631 128.352C60.7242 127.597 59.4738 127.189 58.1897 127.186V127.186Z" fill="white"/>
</g>
<defs>
<filter id="filter0_d_1429_24706" x="17.0156" y="21.6113" width="137.969" height="187.634" filterUnits="userSpaceOnUse" color-interpolation-filters="sRGB">
<feFlood flood-opacity="0" result="BackgroundImageFix"/>
<feColorMatrix in="SourceAlpha" type="matrix" values="0 0 0 0 0 0 0 0 0 0 0 0 0 0 0 0 0 0 127 0" result="hardAlpha"/>
<feOffset dy="4"/>
<feGaussianBlur stdDeviation="10.5"/>
<feComposite in2="hardAlpha" operator="out"/>
<feColorMatrix type="matrix" values="0 0 0 0 0.127552 0 0 0 0 0.123438 0 0 0 0 0.329167 0 0 0 0.13 0"/>
<feBlend mode="normal" in2="BackgroundImageFix" result="effect1_dropShadow_1429_24706"/>
<feBlend mode="normal" in="SourceGraphic" in2="effect1_dropShadow_1429_24706" result="shape"/>
</filter>
</defs>
</svg>
